<svg xmlns="http://www.w3.org/2000/svg" version="1.1" data-icon="task" data-container-transform="translate(0 9)" viewBox="0 0 32 40" x="0px" y="0px"><path d="M14.438-.063l-6.438 6.438-1.938-1.938-2.125 2.125 3 3 1.063 1.063 1.063-1.063 7.5-7.5-2.125-2.125zm-12.938 1.063c-.372 0-.773.148-1.063.438-.29.29-.438.69-.438 1.063v10c0 .372.148.773.438 1.063.29.29.69.438 1.063.438h10c.372 0 .773-.148 1.063-.438.29-.29.438-.69.438-1.063v-4l-2 2v1.5h-9v-9h6.594l2-2h-9.094zm15.5 3v2h15v-2h-15zm0 5v2h12v-2h-12z" transform="translate(0 9)"/><text x="0" y="47" fill="#000000" font-size="5px" font-weight="bold" font-family="'Helvetica Neue', Helvetica, Arial-Unicode, Arial, Sans-serif">Created by useiconic.com</text><text x="0" y="52" fill="#000000" font-size="5px" font-weight="bold" font-family="'Helvetica Neue', Helvetica, Arial-Unicode, Arial, Sans-serif">from the Noun Project</text></svg>